<svg width="1840" height="199" viewBox="0 0 1840 199" fill="none" xmlns="http://www.w3.org/2000/svg">
<g clip-path="url(#clip0_1_3)">
<path d="M1446.56 1.28234e-05L1424.35 1.84802L1402.13 -0.0102539C1407.06 29.5374 1409.53 59.4238 1409.53 89.3616V109.618C1409.53 139.556 1407.06 169.442 1402.13 198.979L1424.35 197.131L1446.56 198.99C1441.64 169.442 1439.16 139.556 1439.16 109.618V89.3616C1439.16 59.4238 1441.64 29.5374 1446.56 1.28234e-05Z" fill="#343434"/>
<path d="M95.6945 22.1967C125.66 22.1967 155.564 24.6709 185.129 29.5887H185.16L177.738 0H0C4.92402 29.5374 7.40145 59.4341 7.40145 89.3719V109.628C7.40145 139.576 4.92402 169.463 0 198.99H177.738L185.149 169.411C155.574 174.329 125.65 176.803 95.6637 176.803H37.0278V110.47H80.8505C110.837 110.47 140.761 112.944 170.336 117.862L168.486 99.3717L170.336 80.8813C140.761 85.799 110.837 88.2733 80.8505 88.2733H37.0278V22.1967H95.6945Z" fill="#343434"/>
<path d="M777.029 22.1967C806.994 22.1967 836.898 24.6709 866.463 29.5887H866.494L859.082 0H681.334C686.258 29.5374 688.746 59.4238 688.746 89.3719V109.628C688.746 139.566 686.268 169.452 681.344 198.99H859.082L866.483 169.411C836.908 174.329 806.984 176.803 776.998 176.803H718.362V110.47H762.185C792.171 110.47 822.095 112.944 851.67 117.862L849.82 99.3717L851.67 80.8813C822.095 85.799 792.171 88.2733 762.185 88.2733H718.362V22.1967H777.029Z" fill="#343434"/>
<path d="M392.513 176.814V89.3719C392.513 59.4238 394.991 29.5374 399.915 0L377.7 1.84801L355.485 0C360.409 29.5374 362.897 59.4238 362.897 89.3719V109.628C362.897 139.566 360.42 169.452 355.496 198.99H503.617L511.019 169.411C481.444 174.329 451.519 176.803 421.533 176.803H392.523L392.513 176.814Z" fill="#343434"/>
<path d="M1839.97 198.949C1821.55 169.422 1805.08 138.745 1790.64 107.082L1741.8 0H1701.45L1652.64 107.031C1638.19 138.724 1621.69 169.442 1603.26 198.99L1626 197.142L1648.58 198.99C1652.47 179.976 1658.46 161.465 1666.35 143.744H1776.89C1784.8 161.465 1790.78 179.976 1794.67 198.99L1817.25 197.142L1839.99 198.99L1839.96 198.938L1839.97 198.949ZM1719.91 25.8927H1723.33L1766.86 121.568H1676.39L1719.91 25.8927Z" fill="#343434"/>
<path d="M1231.79 55.235C1231.79 24.7325 1207.03 0 1176.48 0H1036.83V0.0616004C1041.75 29.5579 1044.22 59.4136 1044.22 89.3103V109.679C1044.22 139.586 1041.75 169.432 1036.84 198.928V198.99L1059.03 197.142L1081.22 198.99L1081.19 198.795C1076.34 169.596 1073.9 140.059 1073.86 110.46H1161.04L1175.33 141.907C1183.64 160.182 1189.85 179.329 1193.87 198.99L1216.65 197.142L1241.07 198.99C1222.85 169.791 1206.53 139.443 1192.18 108.17C1215.06 101.404 1231.78 80.2756 1231.78 55.235H1231.79ZM1073.85 88.2836V22.1967H1169.07C1187.35 22.1967 1202.16 36.991 1202.16 55.2453C1202.16 73.4995 1187.35 88.2939 1169.07 88.2939H1073.85V88.2836Z" fill="#343434"/>
</g>
<defs>
<clipPath id="clip0_1_3">
<rect width="1840" height="199" fill="white"/>
</clipPath>
</defs>
</svg>
