<svg width="484" height="95" viewBox="0 0 484 95" fill="none" xmlns="http://www.w3.org/2000/svg">
<path d="M468 24H468.5V23.5H468V24ZM467.646 89.3536C467.842 89.5488 468.158 89.5488 468.354 89.3536L471.536 86.1716C471.731 85.9763 471.731 85.6597 471.536 85.4645C471.34 85.2692 471.024 85.2692 470.828 85.4645L468 88.2929L465.172 85.4645C464.976 85.2692 464.66 85.2692 464.464 85.4645C464.269 85.6597 464.269 85.9763 464.464 86.1716L467.646 89.3536ZM290 24.5H468V23.5H290V24.5ZM467.5 24V89H468.5V24H467.5Z" fill="#BCB6B3"/>
<path d="M468 24H468.5V23.5H468V24ZM467.646 89.3536C467.842 89.5488 468.158 89.5488 468.354 89.3536L471.536 86.1716C471.731 85.9763 471.731 85.6597 471.536 85.4645C471.34 85.2692 471.024 85.2692 470.828 85.4645L468 88.2929L465.172 85.4645C464.976 85.2692 464.66 85.2692 464.464 85.4645C464.269 85.6597 464.269 85.9763 464.464 86.1716L467.646 89.3536ZM290 24.5H468V23.5H290V24.5ZM467.5 24V89H468.5V24H467.5Z" fill="#BCB6B3"/>
<path d="M83.3465 25.144C82.0985 25.144 80.8985 24.944 79.7465 24.544C78.6105 24.128 77.7305 23.6 77.1065 22.96L77.8025 21.592C78.3945 22.168 79.1865 22.656 80.1785 23.056C81.1865 23.44 82.2425 23.632 83.3465 23.632C84.4025 23.632 85.2585 23.504 85.9145 23.248C86.5865 22.976 87.0745 22.616 87.3785 22.168C87.6985 21.72 87.8585 21.224 87.8585 20.68C87.8585 20.024 87.6665 19.496 87.2825 19.096C86.9145 18.696 86.4265 18.384 85.8185 18.16C85.2105 17.92 84.5385 17.712 83.8025 17.536C83.0665 17.36 82.3305 17.176 81.5945 16.984C80.8585 16.776 80.1785 16.504 79.5545 16.168C78.9465 15.832 78.4505 15.392 78.0665 14.848C77.6985 14.288 77.5145 13.56 77.5145 12.664C77.5145 11.832 77.7305 11.072 78.1625 10.384C78.6105 9.68 79.2905 9.12 80.2025 8.704C81.1145 8.272 82.2825 8.056 83.7065 8.056C84.6505 8.056 85.5865 8.192 86.5145 8.464C87.4425 8.72 88.2425 9.08 88.9145 9.544L88.3145 10.96C87.5945 10.48 86.8265 10.128 86.0105 9.904C85.2105 9.68 84.4345 9.568 83.6825 9.568C82.6745 9.568 81.8425 9.704 81.1865 9.976C80.5305 10.248 80.0425 10.616 79.7225 11.08C79.4185 11.528 79.2665 12.04 79.2665 12.616C79.2665 13.272 79.4505 13.8 79.8185 14.2C80.2025 14.6 80.6985 14.912 81.3065 15.136C81.9305 15.36 82.6105 15.56 83.3465 15.736C84.0825 15.912 84.8105 16.104 85.5305 16.312C86.2665 16.52 86.9385 16.792 87.5465 17.128C88.1705 17.448 88.6665 17.88 89.0345 18.424C89.4185 18.968 89.6105 19.68 89.6105 20.56C89.6105 21.376 89.3865 22.136 88.9385 22.84C88.4905 23.528 87.8025 24.088 86.8745 24.52C85.9625 24.936 84.7865 25.144 83.3465 25.144ZM100.248 25.144C98.1041 25.144 96.4161 24.528 95.1841 23.296C93.9521 22.064 93.3361 20.24 93.3361 17.824V8.2H95.1121V17.752C95.1121 19.736 95.5601 21.2 96.4561 22.144C97.3521 23.088 98.6161 23.56 100.248 23.56C101.896 23.56 103.168 23.088 104.064 22.144C104.96 21.2 105.408 19.736 105.408 17.752V8.2H107.136V17.824C107.136 20.24 106.52 22.064 105.288 23.296C104.072 24.528 102.392 25.144 100.248 25.144ZM112.488 25V8.2H118.776C120.2 8.2 121.424 8.432 122.448 8.896C123.472 9.344 124.256 10 124.8 10.864C125.36 11.712 125.64 12.744 125.64 13.96C125.64 15.144 125.36 16.168 124.8 17.032C124.256 17.88 123.472 18.536 122.448 19C121.424 19.448 120.2 19.672 118.776 19.672H113.472L114.264 18.856V25H112.488ZM123.96 25L119.64 18.904H121.56L125.904 25H123.96ZM114.264 19L113.472 18.16H118.728C120.408 18.16 121.68 17.792 122.544 17.056C123.424 16.32 123.864 15.288 123.864 13.96C123.864 12.616 123.424 11.576 122.544 10.84C121.68 10.104 120.408 9.736 118.728 9.736H113.472L114.264 8.896V19ZM131.416 16.336H140.296V17.872H131.416V16.336ZM131.608 25H129.832V8.2H141.352V9.736H131.608V25ZM141.534 25L149.214 8.2H150.966L158.646 25H156.774L149.718 9.232H150.438L143.382 25H141.534ZM144.558 20.512L145.086 19.072H154.854L155.382 20.512H144.558ZM168.487 25.144C167.223 25.144 166.055 24.936 164.983 24.52C163.911 24.088 162.983 23.488 162.199 22.72C161.415 21.952 160.799 21.048 160.351 20.008C159.919 18.968 159.703 17.832 159.703 16.6C159.703 15.368 159.919 14.232 160.351 13.192C160.799 12.152 161.415 11.248 162.199 10.48C162.999 9.712 163.935 9.12 165.007 8.704C166.079 8.272 167.247 8.056 168.511 8.056C169.727 8.056 170.871 8.264 171.943 8.68C173.015 9.08 173.919 9.688 174.655 10.504L173.527 11.632C172.839 10.928 172.079 10.424 171.247 10.12C170.415 9.8 169.519 9.64 168.559 9.64C167.551 9.64 166.615 9.816 165.751 10.168C164.887 10.504 164.135 10.992 163.495 11.632C162.855 12.256 162.351 12.992 161.983 13.84C161.631 14.672 161.455 15.592 161.455 16.6C161.455 17.608 161.631 18.536 161.983 19.384C162.351 20.216 162.855 20.952 163.495 21.592C164.135 22.216 164.887 22.704 165.751 23.056C166.615 23.392 167.551 23.56 168.559 23.56C169.519 23.56 170.415 23.4 171.247 23.08C172.079 22.76 172.839 22.248 173.527 21.544L174.655 22.672C173.919 23.488 173.015 24.104 171.943 24.52C170.871 24.936 169.719 25.144 168.487 25.144ZM180.025 15.712H188.905V17.224H180.025V15.712ZM180.217 23.464H190.321V25H178.441V8.2H189.961V9.736H180.217V23.464ZM200.777 25V8.2H202.553V23.464H211.961V25H200.777ZM212.222 25L219.902 8.2H221.654L229.334 25H227.462L220.406 9.232H221.126L214.07 25H212.222ZM215.246 20.512L215.774 19.072H225.542L226.07 20.512H215.246ZM236.745 25.144C235.497 25.144 234.297 24.944 233.145 24.544C232.009 24.128 231.129 23.6 230.505 22.96L231.201 21.592C231.793 22.168 232.585 22.656 233.577 23.056C234.585 23.44 235.641 23.632 236.745 23.632C237.801 23.632 238.657 23.504 239.313 23.248C239.985 22.976 240.473 22.616 240.777 22.168C241.097 21.72 241.257 21.224 241.257 20.68C241.257 20.024 241.065 19.496 240.681 19.096C240.313 18.696 239.825 18.384 239.217 18.16C238.609 17.92 237.937 17.712 237.201 17.536C236.465 17.36 235.729 17.176 234.993 16.984C234.257 16.776 233.577 16.504 232.953 16.168C232.345 15.832 231.849 15.392 231.465 14.848C231.097 14.288 230.913 13.56 230.913 12.664C230.913 11.832 231.129 11.072 231.561 10.384C232.009 9.68 232.689 9.12 233.601 8.704C234.513 8.272 235.681 8.056 237.105 8.056C238.049 8.056 238.985 8.192 239.913 8.464C240.841 8.72 241.641 9.08 242.313 9.544L241.713 10.96C240.993 10.48 240.225 10.128 239.409 9.904C238.609 9.68 237.833 9.568 237.081 9.568C236.073 9.568 235.241 9.704 234.585 9.976C233.929 10.248 233.441 10.616 233.121 11.08C232.817 11.528 232.665 12.04 232.665 12.616C232.665 13.272 232.849 13.8 233.217 14.2C233.601 14.6 234.097 14.912 234.705 15.136C235.329 15.36 236.009 15.56 236.745 15.736C237.481 15.912 238.209 16.104 238.929 16.312C239.665 16.52 240.337 16.792 240.945 17.128C241.569 17.448 242.065 17.88 242.433 18.424C242.817 18.968 243.009 19.68 243.009 20.56C243.009 21.376 242.785 22.136 242.337 22.84C241.889 23.528 241.201 24.088 240.273 24.52C239.361 24.936 238.185 25.144 236.745 25.144ZM248.463 15.712H257.343V17.224H248.463V15.712ZM248.655 23.464H258.759V25H246.879V8.2H258.399V9.736H248.655V23.464ZM73.4997 57V40.2H79.7877C81.2117 40.2 82.4357 40.432 83.4597 40.896C84.4837 41.344 85.2677 42 85.8117 42.864C86.3717 43.712 86.6517 44.744 86.6517 45.96C86.6517 47.144 86.3717 48.168 85.8117 49.032C85.2677 49.88 84.4837 50.536 83.4597 51C82.4357 51.464 81.2117 51.696 79.7877 51.696H74.4837L75.2757 50.856V57H73.4997ZM75.2757 51L74.4837 50.136H79.7397C81.4197 50.136 82.6917 49.776 83.5557 49.056C84.4357 48.32 84.8757 47.288 84.8757 45.96C84.8757 44.616 84.4357 43.576 83.5557 42.84C82.6917 42.104 81.4197 41.736 79.7397 41.736H74.4837L75.2757 40.896V51ZM92.0759 47.712H100.956V49.224H92.0759V47.712ZM92.2679 55.464H102.372V57H90.4919V40.2H102.012V41.736H92.2679V55.464ZM106.547 57V40.2H112.835C114.259 40.2 115.483 40.432 116.507 40.896C117.531 41.344 118.315 42 118.859 42.864C119.419 43.712 119.699 44.744 119.699 45.96C119.699 47.144 119.419 48.168 118.859 49.032C118.315 49.88 117.531 50.536 116.507 51C115.483 51.448 114.259 51.672 112.835 51.672H107.531L108.323 50.856V57H106.547ZM118.019 57L113.699 50.904H115.619L119.963 57H118.019ZM108.323 51L107.531 50.16H112.787C114.467 50.16 115.739 49.792 116.603 49.056C117.483 48.32 117.923 47.288 117.923 45.96C117.923 44.616 117.483 43.576 116.603 42.84C115.739 42.104 114.467 41.736 112.787 41.736H107.531L108.323 40.896V51ZM125.474 48.336H134.354V49.872H125.474V48.336ZM125.666 57H123.89V40.2H135.41V41.736H125.666V57ZM146.211 57.144C144.947 57.144 143.771 56.936 142.683 56.52C141.611 56.088 140.675 55.488 139.875 54.72C139.091 53.936 138.475 53.032 138.027 52.008C137.595 50.968 137.379 49.832 137.379 48.6C137.379 47.368 137.595 46.24 138.027 45.216C138.475 44.176 139.091 43.272 139.875 42.504C140.675 41.72 141.611 41.12 142.683 40.704C143.755 40.272 144.931 40.056 146.211 40.056C147.475 40.056 148.643 40.272 149.715 40.704C150.787 41.12 151.715 41.712 152.499 42.48C153.299 43.248 153.915 44.152 154.347 45.192C154.795 46.232 155.019 47.368 155.019 48.6C155.019 49.832 154.795 50.968 154.347 52.008C153.915 53.048 153.299 53.952 152.499 54.72C151.715 55.488 150.787 56.088 149.715 56.52C148.643 56.936 147.475 57.144 146.211 57.144ZM146.211 55.56C147.219 55.56 148.147 55.392 148.995 55.056C149.859 54.704 150.603 54.216 151.227 53.592C151.867 52.952 152.363 52.216 152.715 51.384C153.067 50.536 153.243 49.608 153.243 48.6C153.243 47.592 153.067 46.672 152.715 45.84C152.363 44.992 151.867 44.256 151.227 43.632C150.603 42.992 149.859 42.504 148.995 42.168C148.147 41.816 147.219 41.64 146.211 41.64C145.203 41.64 144.267 41.816 143.403 42.168C142.539 42.504 141.787 42.992 141.147 43.632C140.523 44.256 140.027 44.992 139.659 45.84C139.307 46.672 139.131 47.592 139.131 48.6C139.131 49.592 139.307 50.512 139.659 51.36C140.027 52.208 140.523 52.952 141.147 53.592C141.787 54.216 142.539 54.704 143.403 55.056C144.267 55.392 145.203 55.56 146.211 55.56ZM159 57V40.2H165.288C166.712 40.2 167.936 40.432 168.96 40.896C169.984 41.344 170.768 42 171.312 42.864C171.872 43.712 172.152 44.744 172.152 45.96C172.152 47.144 171.872 48.168 171.312 49.032C170.768 49.88 169.984 50.536 168.96 51C167.936 51.448 166.712 51.672 165.288 51.672H159.984L160.776 50.856V57H159ZM170.472 57L166.152 50.904H168.072L172.416 57H170.472ZM160.776 51L159.984 50.16H165.24C166.92 50.16 168.192 49.792 169.056 49.056C169.936 48.32 170.376 47.288 170.376 45.96C170.376 44.616 169.936 43.576 169.056 42.84C168.192 42.104 166.92 41.736 165.24 41.736H159.984L160.776 40.896V51ZM173.655 57L181.335 40.2H183.087L190.767 57H188.895L181.839 41.232H182.559L175.503 57H173.655ZM176.679 52.512L177.207 51.072H186.975L187.503 52.512H176.679ZM195.967 57V41.736H190.063V40.2H203.647V41.736H197.743V57H195.967ZM206.484 57V40.2H208.26V57H206.484ZM221.07 57.144C219.806 57.144 218.63 56.936 217.542 56.52C216.47 56.088 215.534 55.488 214.734 54.72C213.95 53.936 213.334 53.032 212.886 52.008C212.454 50.968 212.238 49.832 212.238 48.6C212.238 47.368 212.454 46.24 212.886 45.216C213.334 44.176 213.95 43.272 214.734 42.504C215.534 41.72 216.47 41.12 217.542 40.704C218.614 40.272 219.79 40.056 221.07 40.056C222.334 40.056 223.502 40.272 224.574 40.704C225.646 41.12 226.574 41.712 227.358 42.48C228.158 43.248 228.774 44.152 229.206 45.192C229.654 46.232 229.878 47.368 229.878 48.6C229.878 49.832 229.654 50.968 229.206 52.008C228.774 53.048 228.158 53.952 227.358 54.72C226.574 55.488 225.646 56.088 224.574 56.52C223.502 56.936 222.334 57.144 221.07 57.144ZM221.07 55.56C222.078 55.56 223.006 55.392 223.854 55.056C224.718 54.704 225.462 54.216 226.086 53.592C226.726 52.952 227.222 52.216 227.574 51.384C227.926 50.536 228.102 49.608 228.102 48.6C228.102 47.592 227.926 46.672 227.574 45.84C227.222 44.992 226.726 44.256 226.086 43.632C225.462 42.992 224.718 42.504 223.854 42.168C223.006 41.816 222.078 41.64 221.07 41.64C220.062 41.64 219.126 41.816 218.262 42.168C217.398 42.504 216.646 42.992 216.006 43.632C215.382 44.256 214.886 44.992 214.518 45.84C214.166 46.672 213.99 47.592 213.99 48.6C213.99 49.592 214.166 50.512 214.518 51.36C214.886 52.208 215.382 52.952 216.006 53.592C216.646 54.216 217.398 54.704 218.262 55.056C219.126 55.392 220.062 55.56 221.07 55.56ZM233.859 57V40.2H235.323L246.915 54.792H246.147V40.2H247.899V57H246.435L234.867 42.408H235.635V57H233.859ZM258.014 57.144C256.766 57.144 255.566 56.944 254.414 56.544C253.278 56.128 252.398 55.6 251.774 54.96L252.47 53.592C253.062 54.168 253.854 54.656 254.846 55.056C255.854 55.44 256.91 55.632 258.014 55.632C259.07 55.632 259.926 55.504 260.582 55.248C261.254 54.976 261.742 54.616 262.046 54.168C262.366 53.72 262.526 53.224 262.526 52.68C262.526 52.024 262.334 51.496 261.95 51.096C261.582 50.696 261.094 50.384 260.486 50.16C259.878 49.92 259.206 49.712 258.47 49.536C257.734 49.36 256.998 49.176 256.262 48.984C255.526 48.776 254.846 48.504 254.222 48.168C253.614 47.832 253.118 47.392 252.734 46.848C252.366 46.288 252.182 45.56 252.182 44.664C252.182 43.832 252.398 43.072 252.83 42.384C253.278 41.68 253.958 41.12 254.87 40.704C255.782 40.272 256.95 40.056 258.374 40.056C259.318 40.056 260.254 40.192 261.182 40.464C262.11 40.72 262.91 41.08 263.582 41.544L262.982 42.96C262.262 42.48 261.494 42.128 260.678 41.904C259.878 41.68 259.102 41.568 258.35 41.568C257.342 41.568 256.51 41.704 255.854 41.976C255.198 42.248 254.71 42.616 254.39 43.08C254.086 43.528 253.934 44.04 253.934 44.616C253.934 45.272 254.118 45.8 254.486 46.2C254.87 46.6 255.366 46.912 255.974 47.136C256.598 47.36 257.278 47.56 258.014 47.736C258.75 47.912 259.478 48.104 260.198 48.312C260.934 48.52 261.606 48.792 262.214 49.128C262.838 49.448 263.334 49.88 263.702 50.424C264.086 50.968 264.278 51.68 264.278 52.56C264.278 53.376 264.054 54.136 263.606 54.84C263.158 55.528 262.47 56.088 261.542 56.52C260.63 56.936 259.454 57.144 258.014 57.144Z" fill="#343434"/>
</svg>
