<svg width="437" height="38" viewBox="0 0 437 38" fill="none" xmlns="http://www.w3.org/2000/svg">
<path d="M0.646439 18.6464C0.451187 18.8417 0.451187 19.1583 0.646439 19.3535L3.82843 22.5355C4.02368 22.7308 4.34027 22.7308 4.53554 22.5355C4.73079 22.3403 4.73079 22.0237 4.53554 21.8284L1.70711 19L4.53554 16.1716C4.73079 15.9763 4.73079 15.6597 4.53554 15.4644C4.34027 15.2692 4.02368 15.2692 3.82843 15.4644L0.646439 18.6464ZM218 18.5H1V19.5H218V18.5Z" fill="#BCB6B3"/>
<path d="M238.995 28L233.331 11.2H235.155L240.459 27.016H239.547L245.019 11.2H246.651L252.051 27.016H251.187L256.539 11.2H258.243L252.579 28H250.707L245.547 13H246.027L240.843 28H238.995ZM261.5 28V11.2H263.276V28H261.5ZM268.742 28V11.2H275.03C276.454 11.2 277.678 11.432 278.702 11.896C279.726 12.344 280.51 13 281.054 13.864C281.614 14.712 281.894 15.744 281.894 16.96C281.894 18.144 281.614 19.168 281.054 20.032C280.51 20.88 279.726 21.536 278.702 22C277.678 22.448 276.454 22.672 275.03 22.672H269.726L270.518 21.856V28H268.742ZM280.214 28L275.894 21.904H277.814L282.158 28H280.214ZM270.518 22L269.726 21.16H274.982C276.662 21.16 277.934 20.792 278.798 20.056C279.678 19.32 280.118 18.288 280.118 16.96C280.118 15.616 279.678 14.576 278.798 13.84C277.934 13.104 276.662 12.736 274.982 12.736H269.726L270.518 11.896V22ZM286.086 28V11.2H287.862V28H286.086ZM293.328 28V11.2H294.792L306.384 25.792H305.616V11.2H307.368V28H305.904L294.336 13.408H295.104V28H293.328ZM320.219 28.144C318.939 28.144 317.755 27.936 316.667 27.52C315.595 27.088 314.659 26.488 313.859 25.72C313.075 24.952 312.459 24.048 312.011 23.008C311.579 21.968 311.363 20.832 311.363 19.6C311.363 18.368 311.579 17.232 312.011 16.192C312.459 15.152 313.083 14.248 313.883 13.48C314.683 12.712 315.619 12.12 316.691 11.704C317.779 11.272 318.963 11.056 320.243 11.056C321.523 11.056 322.691 11.256 323.747 11.656C324.819 12.056 325.731 12.664 326.483 13.48L325.379 14.608C324.675 13.904 323.899 13.4 323.051 13.096C322.203 12.792 321.291 12.64 320.315 12.64C319.275 12.64 318.315 12.816 317.435 13.168C316.571 13.504 315.811 13.992 315.155 14.632C314.515 15.256 314.011 15.992 313.643 16.84C313.291 17.672 313.115 18.592 313.115 19.6C313.115 20.592 313.291 21.512 313.643 22.36C314.011 23.208 314.515 23.952 315.155 24.592C315.811 25.216 316.571 25.704 317.435 26.056C318.315 26.392 319.267 26.56 320.291 26.56C321.251 26.56 322.155 26.416 323.003 26.128C323.867 25.84 324.659 25.352 325.379 24.664L326.387 26.008C325.587 26.712 324.651 27.248 323.579 27.616C322.507 27.968 321.387 28.144 320.219 28.144ZM324.683 25.792V19.6H326.387V26.008L324.683 25.792Z" fill="#343434"/>
</svg>
