<svg width="166" height="76" viewBox="0 0 166 76" fill="none" xmlns="http://www.w3.org/2000/svg">
<path d="M58.08 25.144C56.816 25.144 55.64 24.936 54.552 24.52C53.48 24.088 52.544 23.488 51.744 22.72C50.96 21.936 50.344 21.032 49.896 20.008C49.464 18.968 49.248 17.832 49.248 16.6C49.248 15.368 49.464 14.24 49.896 13.216C50.344 12.176 50.96 11.272 51.744 10.504C52.544 9.72 53.48 9.12 54.552 8.704C55.624 8.272 56.8 8.056 58.08 8.056C59.344 8.056 60.512 8.272 61.584 8.704C62.656 9.12 63.584 9.712 64.368 10.48C65.168 11.248 65.784 12.152 66.216 13.192C66.664 14.232 66.888 15.368 66.888 16.6C66.888 17.832 66.664 18.968 66.216 20.008C65.784 21.048 65.168 21.952 64.368 22.72C63.584 23.488 62.656 24.088 61.584 24.52C60.512 24.936 59.344 25.144 58.08 25.144ZM58.08 23.56C59.088 23.56 60.016 23.392 60.864 23.056C61.728 22.704 62.472 22.216 63.096 21.592C63.736 20.952 64.232 20.216 64.584 19.384C64.936 18.536 65.112 17.608 65.112 16.6C65.112 15.592 64.936 14.672 64.584 13.84C64.232 12.992 63.736 12.256 63.096 11.632C62.472 10.992 61.728 10.504 60.864 10.168C60.016 9.816 59.088 9.64 58.08 9.64C57.072 9.64 56.136 9.816 55.272 10.168C54.408 10.504 53.656 10.992 53.016 11.632C52.392 12.256 51.896 12.992 51.528 13.84C51.176 14.672 51 15.592 51 16.6C51 17.592 51.176 18.512 51.528 19.36C51.896 20.208 52.392 20.952 53.016 21.592C53.656 22.216 54.408 22.704 55.272 23.056C56.136 23.392 57.072 23.56 58.08 23.56ZM70.8688 25V8.2H72.3328L83.9248 22.792H83.1568V8.2H84.9088V25H83.4448L71.8768 10.408H72.6448V25H70.8688ZM90.3923 25V8.2H92.1683V25H90.3923ZM95.3064 25L102.194 15.688V17.056L95.7144 8.2H97.7544L103.202 15.592L102.41 15.616L107.858 8.2H109.778L103.37 16.936V15.688L110.234 25H108.17L102.362 17.104H103.106L97.3464 25H95.3064ZM14.7508 57.144C13.5028 57.144 12.3028 56.944 11.1508 56.544C10.0148 56.128 9.13481 55.6 8.51081 54.96L9.20681 53.592C9.79881 54.168 10.5908 54.656 11.5828 55.056C12.5908 55.44 13.6468 55.632 14.7508 55.632C15.8068 55.632 16.6628 55.504 17.3188 55.248C17.9908 54.976 18.4788 54.616 18.7828 54.168C19.1028 53.72 19.2628 53.224 19.2628 52.68C19.2628 52.024 19.0708 51.496 18.6868 51.096C18.3188 50.696 17.8308 50.384 17.2228 50.16C16.6148 49.92 15.9428 49.712 15.2068 49.536C14.4708 49.36 13.7348 49.176 12.9988 48.984C12.2628 48.776 11.5828 48.504 10.9588 48.168C10.3508 47.832 9.85481 47.392 9.47081 46.848C9.10281 46.288 8.91881 45.56 8.91881 44.664C8.91881 43.832 9.13481 43.072 9.56681 42.384C10.0148 41.68 10.6948 41.12 11.6068 40.704C12.5188 40.272 13.6868 40.056 15.1108 40.056C16.0548 40.056 16.9908 40.192 17.9188 40.464C18.8468 40.72 19.6468 41.08 20.3188 41.544L19.7188 42.96C18.9988 42.48 18.2308 42.128 17.4148 41.904C16.6148 41.68 15.8388 41.568 15.0868 41.568C14.0788 41.568 13.2468 41.704 12.5908 41.976C11.9348 42.248 11.4468 42.616 11.1268 43.08C10.8228 43.528 10.6708 44.04 10.6708 44.616C10.6708 45.272 10.8548 45.8 11.2228 46.2C11.6068 46.6 12.1028 46.912 12.7108 47.136C13.3348 47.36 14.0148 47.56 14.7508 47.736C15.4868 47.912 16.2148 48.104 16.9348 48.312C17.6708 48.52 18.3428 48.792 18.9508 49.128C19.5748 49.448 20.0708 49.88 20.4388 50.424C20.8228 50.968 21.0148 51.68 21.0148 52.56C21.0148 53.376 20.7908 54.136 20.3428 54.84C19.8948 55.528 19.2068 56.088 18.2788 56.52C17.3668 56.936 16.1908 57.144 14.7508 57.144ZM27.9141 57V41.736H22.0101V40.2H35.5941V41.736H29.6901V57H27.9141ZM45.5409 57.144C44.2769 57.144 43.1009 56.936 42.0129 56.52C40.9409 56.088 40.0049 55.488 39.2049 54.72C38.4209 53.936 37.8049 53.032 37.3569 52.008C36.9249 50.968 36.7089 49.832 36.7089 48.6C36.7089 47.368 36.9249 46.24 37.3569 45.216C37.8049 44.176 38.4209 43.272 39.2049 42.504C40.0049 41.72 40.9409 41.12 42.0129 40.704C43.0849 40.272 44.2609 40.056 45.5409 40.056C46.8049 40.056 47.9729 40.272 49.0449 40.704C50.1169 41.12 51.0449 41.712 51.8289 42.48C52.6289 43.248 53.2449 44.152 53.6769 45.192C54.1249 46.232 54.3489 47.368 54.3489 48.6C54.3489 49.832 54.1249 50.968 53.6769 52.008C53.2449 53.048 52.6289 53.952 51.8289 54.72C51.0449 55.488 50.1169 56.088 49.0449 56.52C47.9729 56.936 46.8049 57.144 45.5409 57.144ZM45.5409 55.56C46.5489 55.56 47.4769 55.392 48.3249 55.056C49.1889 54.704 49.9329 54.216 50.5569 53.592C51.1969 52.952 51.6929 52.216 52.0449 51.384C52.3969 50.536 52.5729 49.608 52.5729 48.6C52.5729 47.592 52.3969 46.672 52.0449 45.84C51.6929 44.992 51.1969 44.256 50.5569 43.632C49.9329 42.992 49.1889 42.504 48.3249 42.168C47.4769 41.816 46.5489 41.64 45.5409 41.64C44.5329 41.64 43.5969 41.816 42.7329 42.168C41.8689 42.504 41.1169 42.992 40.4769 43.632C39.8529 44.256 39.3569 44.992 38.9889 45.84C38.6369 46.672 38.4609 47.592 38.4609 48.6C38.4609 49.592 38.6369 50.512 38.9889 51.36C39.3569 52.208 39.8529 52.952 40.4769 53.592C41.1169 54.216 41.8689 54.704 42.7329 55.056C43.5969 55.392 44.5329 55.56 45.5409 55.56ZM58.3298 57V40.2H59.7938L71.3858 54.792H70.6178V40.2H72.3698V57H70.9058L59.3378 42.408H60.1058V57H58.3298ZM79.4372 47.712H88.3172V49.224H79.4372V47.712ZM79.6292 55.464H89.7332V57H77.8532V40.2H89.3732V41.736H79.6292V55.464ZM98.3891 57V55.776L105.373 48.936C106.013 48.312 106.493 47.768 106.813 47.304C107.133 46.824 107.349 46.376 107.461 45.96C107.573 45.544 107.629 45.152 107.629 44.784C107.629 43.808 107.293 43.04 106.621 42.48C105.965 41.92 104.989 41.64 103.693 41.64C102.701 41.64 101.821 41.792 101.053 42.096C100.301 42.4 99.6531 42.872 99.1091 43.512L97.8851 42.456C98.5411 41.688 99.3811 41.096 100.405 40.68C101.429 40.264 102.573 40.056 103.837 40.056C104.973 40.056 105.957 40.24 106.789 40.608C107.621 40.96 108.261 41.48 108.709 42.168C109.173 42.856 109.405 43.664 109.405 44.592C109.405 45.136 109.325 45.672 109.165 46.2C109.021 46.728 108.749 47.288 108.349 47.88C107.965 48.456 107.397 49.112 106.645 49.848L100.237 56.136L99.7571 55.464H110.173V57H98.3891ZM121.126 57.144C119.862 57.144 118.694 56.936 117.622 56.52C116.55 56.088 115.622 55.488 114.838 54.72C114.054 53.952 113.438 53.048 112.99 52.008C112.558 50.968 112.342 49.832 112.342 48.6C112.342 47.368 112.558 46.232 112.99 45.192C113.438 44.152 114.054 43.248 114.838 42.48C115.638 41.712 116.574 41.12 117.646 40.704C118.718 40.272 119.886 40.056 121.15 40.056C122.366 40.056 123.51 40.264 124.582 40.68C125.654 41.08 126.558 41.688 127.294 42.504L126.166 43.632C125.478 42.928 124.718 42.424 123.886 42.12C123.054 41.8 122.158 41.64 121.198 41.64C120.19 41.64 119.254 41.816 118.39 42.168C117.526 42.504 116.774 42.992 116.134 43.632C115.494 44.256 114.99 44.992 114.622 45.84C114.27 46.672 114.094 47.592 114.094 48.6C114.094 49.608 114.27 50.536 114.622 51.384C114.99 52.216 115.494 52.952 116.134 53.592C116.774 54.216 117.526 54.704 118.39 55.056C119.254 55.392 120.19 55.56 121.198 55.56C122.158 55.56 123.054 55.4 123.886 55.08C124.718 54.76 125.478 54.248 126.166 53.544L127.294 54.672C126.558 55.488 125.654 56.104 124.582 56.52C123.51 56.936 122.358 57.144 121.126 57.144ZM131.08 57V40.2H132.544L140.224 53.304H139.456L147.064 40.2H148.528V57H146.824V42.864H147.232L140.224 54.864H139.384L132.328 42.864H132.784V57H131.08Z" fill="#343434"/>
</svg>
