<svg width="482" height="83" viewBox="0 0 482 83" fill="none" xmlns="http://www.w3.org/2000/svg">
<path d="M481.354 41.8536C481.549 41.6583 481.549 41.3417 481.354 41.1464L478.172 37.9645C477.976 37.7692 477.66 37.7692 477.464 37.9645C477.269 38.1597 477.269 38.4763 477.464 38.6716L480.293 41.5L477.464 44.3284C477.269 44.5237 477.269 44.8403 477.464 45.0355C477.66 45.2308 477.976 45.2308 478.172 45.0355L481.354 41.8536ZM259 42H481V41H259V42Z" fill="#BCB6B3"/>
<path d="M141.368 30.962C140.12 30.962 138.92 30.762 137.768 30.362C136.632 29.946 135.752 29.418 135.128 28.778L135.824 27.41C136.416 27.986 137.208 28.474 138.2 28.874C139.208 29.258 140.264 29.45 141.368 29.45C142.424 29.45 143.28 29.322 143.936 29.066C144.608 28.794 145.096 28.434 145.4 27.986C145.72 27.538 145.88 27.042 145.88 26.498C145.88 25.842 145.688 25.314 145.304 24.914C144.936 24.514 144.448 24.202 143.84 23.978C143.232 23.738 142.56 23.53 141.824 23.354C141.088 23.178 140.352 22.994 139.616 22.802C138.88 22.594 138.2 22.322 137.576 21.986C136.968 21.65 136.472 21.21 136.088 20.666C135.72 20.106 135.536 19.378 135.536 18.482C135.536 17.65 135.752 16.89 136.184 16.202C136.632 15.498 137.312 14.938 138.224 14.522C139.136 14.09 140.304 13.874 141.728 13.874C142.672 13.874 143.608 14.01 144.536 14.282C145.464 14.538 146.264 14.898 146.936 15.362L146.336 16.778C145.616 16.298 144.848 15.946 144.032 15.722C143.232 15.498 142.456 15.386 141.704 15.386C140.696 15.386 139.864 15.522 139.208 15.794C138.552 16.066 138.064 16.434 137.744 16.898C137.44 17.346 137.288 17.858 137.288 18.434C137.288 19.09 137.472 19.618 137.84 20.018C138.224 20.418 138.72 20.73 139.328 20.954C139.952 21.178 140.632 21.378 141.368 21.554C142.104 21.73 142.832 21.922 143.552 22.13C144.288 22.338 144.96 22.61 145.568 22.946C146.192 23.266 146.688 23.698 147.056 24.242C147.44 24.786 147.632 25.498 147.632 26.378C147.632 27.194 147.408 27.954 146.96 28.658C146.512 29.346 145.824 29.906 144.896 30.338C143.984 30.754 142.808 30.962 141.368 30.962ZM151.502 30.818V14.018H153.278V29.282H162.686V30.818H151.502ZM172.65 30.962C171.386 30.962 170.21 30.754 169.122 30.338C168.05 29.906 167.114 29.306 166.314 28.538C165.53 27.754 164.914 26.85 164.466 25.826C164.034 24.786 163.818 23.65 163.818 22.418C163.818 21.186 164.034 20.058 164.466 19.034C164.914 17.994 165.53 17.09 166.314 16.322C167.114 15.538 168.05 14.938 169.122 14.522C170.194 14.09 171.37 13.874 172.65 13.874C173.914 13.874 175.082 14.09 176.154 14.522C177.226 14.938 178.154 15.53 178.938 16.298C179.738 17.066 180.354 17.97 180.786 19.01C181.234 20.05 181.458 21.186 181.458 22.418C181.458 23.65 181.234 24.786 180.786 25.826C180.354 26.866 179.738 27.77 178.938 28.538C178.154 29.306 177.226 29.906 176.154 30.338C175.082 30.754 173.914 30.962 172.65 30.962ZM172.65 29.378C173.658 29.378 174.586 29.21 175.434 28.874C176.298 28.522 177.042 28.034 177.666 27.41C178.306 26.77 178.802 26.034 179.154 25.202C179.506 24.354 179.682 23.426 179.682 22.418C179.682 21.41 179.506 20.49 179.154 19.658C178.802 18.81 178.306 18.074 177.666 17.45C177.042 16.81 176.298 16.322 175.434 15.986C174.586 15.634 173.658 15.458 172.65 15.458C171.642 15.458 170.706 15.634 169.842 15.986C168.978 16.322 168.226 16.81 167.586 17.45C166.962 18.074 166.466 18.81 166.098 19.658C165.746 20.49 165.57 21.41 165.57 22.418C165.57 23.41 165.746 24.33 166.098 25.178C166.466 26.026 166.962 26.77 167.586 27.41C168.226 28.034 168.978 28.522 169.842 28.874C170.706 29.21 171.642 29.378 172.65 29.378ZM188.469 30.818V15.554H182.565V14.018H196.149V15.554H190.245V30.818H188.469ZM202.484 30.818V15.554H196.58V14.018H210.164V15.554H204.26V30.818H202.484ZM214.586 21.53H223.466V23.042H214.586V21.53ZM214.778 29.282H224.882V30.818H213.002V14.018H224.522V15.554H214.778V29.282ZM229.056 30.818V14.018H235.896C237.688 14.018 239.256 14.378 240.6 15.098C241.96 15.802 243.016 16.786 243.768 18.05C244.52 19.314 244.896 20.77 244.896 22.418C244.896 24.066 244.52 25.522 243.768 26.786C243.016 28.05 241.96 29.042 240.6 29.762C239.256 30.466 237.688 30.818 235.896 30.818H229.056ZM230.832 29.282H235.8C237.288 29.282 238.576 28.994 239.664 28.418C240.768 27.826 241.624 27.018 242.232 25.994C242.84 24.954 243.144 23.762 243.144 22.418C243.144 21.058 242.84 19.866 242.232 18.842C241.624 17.818 240.768 17.018 239.664 16.442C238.576 15.85 237.288 15.554 235.8 15.554H230.832V29.282ZM137.646 62.818L145.326 46.018H147.078L154.758 62.818H152.886L145.83 47.05H146.55L139.494 62.818H137.646ZM140.67 58.33L141.198 56.89H150.966L151.494 58.33H140.67ZM157.537 62.818V46.018H163.825C165.249 46.018 166.473 46.25 167.497 46.714C168.521 47.162 169.305 47.818 169.849 48.682C170.409 49.53 170.689 50.562 170.689 51.778C170.689 52.962 170.409 53.986 169.849 54.85C169.305 55.698 168.521 56.354 167.497 56.818C166.473 57.266 165.249 57.49 163.825 57.49H158.521L159.313 56.674V62.818H157.537ZM169.009 62.818L164.689 56.722H166.609L170.953 62.818H169.009ZM159.313 56.818L158.521 55.978H163.777C165.457 55.978 166.729 55.61 167.593 54.874C168.473 54.138 168.913 53.106 168.913 51.778C168.913 50.434 168.473 49.394 167.593 48.658C166.729 47.922 165.457 47.554 163.777 47.554H158.521L159.313 46.714V56.818ZM182.177 62.962C180.913 62.962 179.745 62.754 178.673 62.338C177.601 61.906 176.673 61.306 175.889 60.538C175.105 59.77 174.489 58.866 174.041 57.826C173.609 56.786 173.393 55.65 173.393 54.418C173.393 53.186 173.609 52.05 174.041 51.01C174.489 49.97 175.105 49.066 175.889 48.298C176.689 47.53 177.625 46.938 178.697 46.522C179.769 46.09 180.937 45.874 182.201 45.874C183.417 45.874 184.561 46.082 185.633 46.498C186.705 46.898 187.609 47.506 188.345 48.322L187.217 49.45C186.529 48.746 185.769 48.242 184.937 47.938C184.105 47.618 183.209 47.458 182.249 47.458C181.241 47.458 180.305 47.634 179.441 47.986C178.577 48.322 177.825 48.81 177.185 49.45C176.545 50.074 176.041 50.81 175.673 51.658C175.321 52.49 175.145 53.41 175.145 54.418C175.145 55.426 175.321 56.354 175.673 57.202C176.041 58.034 176.545 58.77 177.185 59.41C177.825 60.034 178.577 60.522 179.441 60.874C180.305 61.21 181.241 61.378 182.249 61.378C183.209 61.378 184.105 61.218 184.937 60.898C185.769 60.578 186.529 60.066 187.217 59.362L188.345 60.49C187.609 61.306 186.705 61.922 185.633 62.338C184.561 62.754 183.409 62.962 182.177 62.962ZM195.787 62.818V56.578L196.195 57.682L189.067 46.018H190.963L197.227 56.266H196.219L202.483 46.018H204.259L197.131 57.682L197.539 56.578V62.818H195.787ZM206.662 62.818V46.018H208.438V61.282H217.846V62.818H206.662ZM220.795 62.818V46.018H222.571V62.818H220.795ZM235.333 62.962C234.069 62.962 232.901 62.754 231.829 62.338C230.757 61.906 229.829 61.306 229.045 60.538C228.261 59.77 227.645 58.866 227.197 57.826C226.765 56.786 226.549 55.65 226.549 54.418C226.549 53.186 226.765 52.05 227.197 51.01C227.645 49.97 228.261 49.066 229.045 48.298C229.845 47.53 230.781 46.938 231.853 46.522C232.925 46.09 234.093 45.874 235.357 45.874C236.573 45.874 237.717 46.082 238.789 46.498C239.861 46.898 240.765 47.506 241.501 48.322L240.373 49.45C239.685 48.746 238.925 48.242 238.093 47.938C237.261 47.618 236.365 47.458 235.405 47.458C234.397 47.458 233.461 47.634 232.597 47.986C231.733 48.322 230.981 48.81 230.341 49.45C229.701 50.074 229.197 50.81 228.829 51.658C228.477 52.49 228.301 53.41 228.301 54.418C228.301 55.426 228.477 56.354 228.829 57.202C229.197 58.034 229.701 58.77 230.341 59.41C230.981 60.034 231.733 60.522 232.597 60.874C233.461 61.21 234.397 61.378 235.405 61.378C236.365 61.378 237.261 61.218 238.093 60.898C238.925 60.578 239.685 60.066 240.373 59.362L241.501 60.49C240.765 61.306 239.861 61.922 238.789 62.338C237.717 62.754 236.565 62.962 235.333 62.962Z" fill="#343434"/>
</svg>
