<svg width="357" height="38" viewBox="0 0 357 38" fill="none" xmlns="http://www.w3.org/2000/svg">
<path d="M342.354 18.8535C342.549 18.6583 342.549 18.3417 342.354 18.1464L339.172 14.9645C338.976 14.7692 338.66 14.7692 338.464 14.9645C338.269 15.1597 338.269 15.4763 338.464 15.6716L341.293 18.5L338.464 21.3284C338.269 21.5237 338.269 21.8403 338.464 22.0355C338.66 22.2308 338.976 22.2308 339.172 22.0355L342.354 18.8535ZM259 19H342V18H259V19Z" fill="#BCB6B3"/>
<path d="M81.075 27.644C79.811 27.644 78.643 27.436 77.571 27.02C76.499 26.588 75.571 25.988 74.787 25.22C74.003 24.452 73.387 23.548 72.939 22.508C72.507 21.468 72.291 20.332 72.291 19.1C72.291 17.868 72.507 16.732 72.939 15.692C73.387 14.652 74.003 13.748 74.787 12.98C75.587 12.212 76.523 11.62 77.595 11.204C78.667 10.772 79.835 10.556 81.099 10.556C82.315 10.556 83.459 10.764 84.531 11.18C85.603 11.58 86.507 12.188 87.243 13.004L86.115 14.132C85.427 13.428 84.667 12.924 83.835 12.62C83.003 12.3 82.107 12.14 81.147 12.14C80.139 12.14 79.203 12.316 78.339 12.668C77.475 13.004 76.723 13.492 76.083 14.132C75.443 14.756 74.939 15.492 74.571 16.34C74.219 17.172 74.043 18.092 74.043 19.1C74.043 20.108 74.219 21.036 74.571 21.884C74.939 22.716 75.443 23.452 76.083 24.092C76.723 24.716 77.475 25.204 78.339 25.556C79.203 25.892 80.139 26.06 81.147 26.06C82.107 26.06 83.003 25.9 83.835 25.58C84.667 25.26 85.427 24.748 86.115 24.044L87.243 25.172C86.507 25.988 85.603 26.604 84.531 27.02C83.459 27.436 82.307 27.644 81.075 27.644ZM98.0214 27.644C96.7574 27.644 95.5814 27.436 94.4934 27.02C93.4214 26.588 92.4854 25.988 91.6854 25.22C90.9014 24.436 90.2854 23.532 89.8374 22.508C89.4054 21.468 89.1894 20.332 89.1894 19.1C89.1894 17.868 89.4054 16.74 89.8374 15.716C90.2854 14.676 90.9014 13.772 91.6854 13.004C92.4854 12.22 93.4214 11.62 94.4934 11.204C95.5654 10.772 96.7414 10.556 98.0214 10.556C99.2854 10.556 100.453 10.772 101.525 11.204C102.597 11.62 103.525 12.212 104.309 12.98C105.109 13.748 105.725 14.652 106.157 15.692C106.605 16.732 106.829 17.868 106.829 19.1C106.829 20.332 106.605 21.468 106.157 22.508C105.725 23.548 105.109 24.452 104.309 25.22C103.525 25.988 102.597 26.588 101.525 27.02C100.453 27.436 99.2854 27.644 98.0214 27.644ZM98.0214 26.06C99.0294 26.06 99.9574 25.892 100.805 25.556C101.669 25.204 102.413 24.716 103.037 24.092C103.677 23.452 104.173 22.716 104.525 21.884C104.877 21.036 105.053 20.108 105.053 19.1C105.053 18.092 104.877 17.172 104.525 16.34C104.173 15.492 103.677 14.756 103.037 14.132C102.413 13.492 101.669 13.004 100.805 12.668C99.9574 12.316 99.0294 12.14 98.0214 12.14C97.0134 12.14 96.0774 12.316 95.2134 12.668C94.3494 13.004 93.5974 13.492 92.9574 14.132C92.3334 14.756 91.8374 15.492 91.4694 16.34C91.1174 17.172 90.9414 18.092 90.9414 19.1C90.9414 20.092 91.1174 21.012 91.4694 21.86C91.8374 22.708 92.3334 23.452 92.9574 24.092C93.5974 24.716 94.3494 25.204 95.2134 25.556C96.0774 25.892 97.0134 26.06 98.0214 26.06ZM110.81 27.5V10.7H112.274L123.866 25.292H123.098V10.7H124.85V27.5H123.386L111.818 12.908H112.586V27.5H110.81ZM130.334 27.5V10.7H131.798L143.39 25.292H142.622V10.7H144.374V27.5H142.91L131.342 12.908H132.11V27.5H130.334ZM151.441 18.212H160.321V19.724H151.441V18.212ZM151.633 25.964H161.737V27.5H149.857V10.7H161.377V12.236H151.633V25.964ZM173.161 27.644C171.897 27.644 170.729 27.436 169.657 27.02C168.585 26.588 167.657 25.988 166.873 25.22C166.089 24.452 165.473 23.548 165.025 22.508C164.593 21.468 164.377 20.332 164.377 19.1C164.377 17.868 164.593 16.732 165.025 15.692C165.473 14.652 166.089 13.748 166.873 12.98C167.673 12.212 168.609 11.62 169.681 11.204C170.753 10.772 171.921 10.556 173.185 10.556C174.401 10.556 175.545 10.764 176.617 11.18C177.689 11.58 178.593 12.188 179.329 13.004L178.201 14.132C177.513 13.428 176.753 12.924 175.921 12.62C175.089 12.3 174.193 12.14 173.233 12.14C172.225 12.14 171.289 12.316 170.425 12.668C169.561 13.004 168.809 13.492 168.169 14.132C167.529 14.756 167.025 15.492 166.657 16.34C166.305 17.172 166.129 18.092 166.129 19.1C166.129 20.108 166.305 21.036 166.657 21.884C167.025 22.716 167.529 23.452 168.169 24.092C168.809 24.716 169.561 25.204 170.425 25.556C171.289 25.892 172.225 26.06 173.233 26.06C174.193 26.06 175.089 25.9 175.921 25.58C176.753 25.26 177.513 24.748 178.201 24.044L179.329 25.172C178.593 25.988 177.689 26.604 176.617 27.02C175.545 27.436 174.393 27.644 173.161 27.644ZM186.168 27.5V12.236H180.264V10.7H193.848V12.236H187.944V27.5H186.168ZM203.795 27.644C202.531 27.644 201.355 27.436 200.267 27.02C199.195 26.588 198.259 25.988 197.459 25.22C196.675 24.436 196.059 23.532 195.611 22.508C195.179 21.468 194.963 20.332 194.963 19.1C194.963 17.868 195.179 16.74 195.611 15.716C196.059 14.676 196.675 13.772 197.459 13.004C198.259 12.22 199.195 11.62 200.267 11.204C201.339 10.772 202.515 10.556 203.795 10.556C205.059 10.556 206.227 10.772 207.299 11.204C208.371 11.62 209.299 12.212 210.083 12.98C210.883 13.748 211.499 14.652 211.931 15.692C212.379 16.732 212.603 17.868 212.603 19.1C212.603 20.332 212.379 21.468 211.931 22.508C211.499 23.548 210.883 24.452 210.083 25.22C209.299 25.988 208.371 26.588 207.299 27.02C206.227 27.436 205.059 27.644 203.795 27.644ZM203.795 26.06C204.803 26.06 205.731 25.892 206.579 25.556C207.443 25.204 208.187 24.716 208.811 24.092C209.451 23.452 209.947 22.716 210.299 21.884C210.651 21.036 210.827 20.108 210.827 19.1C210.827 18.092 210.651 17.172 210.299 16.34C209.947 15.492 209.451 14.756 208.811 14.132C208.187 13.492 207.443 13.004 206.579 12.668C205.731 12.316 204.803 12.14 203.795 12.14C202.787 12.14 201.851 12.316 200.987 12.668C200.123 13.004 199.371 13.492 198.731 14.132C198.107 14.756 197.611 15.492 197.243 16.34C196.891 17.172 196.715 18.092 196.715 19.1C196.715 20.092 196.891 21.012 197.243 21.86C197.611 22.708 198.107 23.452 198.731 24.092C199.371 24.716 200.123 25.204 200.987 25.556C201.851 25.892 202.787 26.06 203.795 26.06ZM216.584 27.5V10.7H222.872C224.296 10.7 225.52 10.932 226.544 11.396C227.568 11.844 228.352 12.5 228.896 13.364C229.456 14.212 229.736 15.244 229.736 16.46C229.736 17.644 229.456 18.668 228.896 19.532C228.352 20.38 227.568 21.036 226.544 21.5C225.52 21.948 224.296 22.172 222.872 22.172H217.568L218.36 21.356V27.5H216.584ZM228.056 27.5L223.736 21.404H225.656L230 27.5H228.056ZM218.36 21.5L217.568 20.66H222.824C224.504 20.66 225.776 20.292 226.64 19.556C227.52 18.82 227.96 17.788 227.96 16.46C227.96 15.116 227.52 14.076 226.64 13.34C225.776 12.604 224.504 12.236 222.824 12.236H217.568L218.36 11.396V21.5ZM238.559 27.644C237.311 27.644 236.111 27.444 234.959 27.044C233.823 26.628 232.943 26.1 232.319 25.46L233.015 24.092C233.607 24.668 234.399 25.156 235.391 25.556C236.399 25.94 237.455 26.132 238.559 26.132C239.615 26.132 240.471 26.004 241.127 25.748C241.799 25.476 242.287 25.116 242.591 24.668C242.911 24.22 243.071 23.724 243.071 23.18C243.071 22.524 242.879 21.996 242.495 21.596C242.127 21.196 241.639 20.884 241.031 20.66C240.423 20.42 239.751 20.212 239.015 20.036C238.279 19.86 237.543 19.676 236.807 19.484C236.071 19.276 235.391 19.004 234.767 18.668C234.159 18.332 233.663 17.892 233.279 17.348C232.911 16.788 232.727 16.06 232.727 15.164C232.727 14.332 232.943 13.572 233.375 12.884C233.823 12.18 234.503 11.62 235.415 11.204C236.327 10.772 237.495 10.556 238.919 10.556C239.863 10.556 240.799 10.692 241.727 10.964C242.655 11.22 243.455 11.58 244.127 12.044L243.527 13.46C242.807 12.98 242.039 12.628 241.223 12.404C240.423 12.18 239.647 12.068 238.895 12.068C237.887 12.068 237.055 12.204 236.399 12.476C235.743 12.748 235.255 13.116 234.935 13.58C234.631 14.028 234.479 14.54 234.479 15.116C234.479 15.772 234.663 16.3 235.031 16.7C235.415 17.1 235.911 17.412 236.519 17.636C237.143 17.86 237.823 18.06 238.559 18.236C239.295 18.412 240.023 18.604 240.743 18.812C241.479 19.02 242.151 19.292 242.759 19.628C243.383 19.948 243.879 20.38 244.247 20.924C244.631 21.468 244.823 22.18 244.823 23.06C244.823 23.876 244.599 24.636 244.151 25.34C243.703 26.028 243.015 26.588 242.087 27.02C241.175 27.436 239.999 27.644 238.559 27.644Z" fill="#343434"/>
</svg>
