<svg width="417" height="39" viewBox="0 0 417 39" fill="none" xmlns="http://www.w3.org/2000/svg">
<path d="M0.601153 19.1473C0.405951 19.3426 0.40603 19.6592 0.60133 19.8544L3.78411 23.0356C3.97941 23.2308 4.296 23.2307 4.49122 23.0354C4.68642 22.8401 4.68634 22.5235 4.49104 22.3283L1.66191 19.5006L4.48963 16.6715C4.68483 16.4762 4.68475 16.1596 4.48945 15.9644C4.29414 15.7691 3.97755 15.7692 3.78235 15.9645L0.601153 19.1473ZM198.046 18.9516L0.954678 19.0008L0.954928 20.0008L198.046 19.9516V18.9516Z" fill="#BCB6B3"/>
<path d="M218.203 28.5V11.7H219.979V26.964H229.387V28.5H218.203ZM233.92 19.212H242.8V20.724H233.92V19.212ZM234.112 26.964H244.216V28.5H232.336V11.7H243.856V13.236H234.112V26.964ZM248.39 28.5V11.7H255.23C257.022 11.7 258.59 12.06 259.934 12.78C261.294 13.484 262.35 14.468 263.102 15.732C263.854 16.996 264.23 18.452 264.23 20.1C264.23 21.748 263.854 23.204 263.102 24.468C262.35 25.732 261.294 26.724 259.934 27.444C258.59 28.148 257.022 28.5 255.23 28.5H248.39ZM250.166 26.964H255.134C256.622 26.964 257.91 26.676 258.998 26.1C260.102 25.508 260.958 24.7 261.566 23.676C262.174 22.636 262.478 21.444 262.478 20.1C262.478 18.74 262.174 17.548 261.566 16.524C260.958 15.5 260.102 14.7 258.998 14.124C257.91 13.532 256.622 13.236 255.134 13.236H250.166V26.964ZM279.132 28.644C277.884 28.644 276.684 28.444 275.532 28.044C274.396 27.628 273.516 27.1 272.892 26.46L273.588 25.092C274.18 25.668 274.972 26.156 275.964 26.556C276.972 26.94 278.028 27.132 279.132 27.132C280.188 27.132 281.044 27.004 281.7 26.748C282.372 26.476 282.86 26.116 283.164 25.668C283.484 25.22 283.644 24.724 283.644 24.18C283.644 23.524 283.452 22.996 283.068 22.596C282.7 22.196 282.212 21.884 281.604 21.66C280.996 21.42 280.324 21.212 279.588 21.036C278.852 20.86 278.116 20.676 277.38 20.484C276.644 20.276 275.964 20.004 275.34 19.668C274.732 19.332 274.236 18.892 273.852 18.348C273.484 17.788 273.3 17.06 273.3 16.164C273.3 15.332 273.516 14.572 273.948 13.884C274.396 13.18 275.076 12.62 275.988 12.204C276.9 11.772 278.068 11.556 279.492 11.556C280.436 11.556 281.372 11.692 282.3 11.964C283.228 12.22 284.028 12.58 284.7 13.044L284.1 14.46C283.38 13.98 282.612 13.628 281.796 13.404C280.996 13.18 280.22 13.068 279.468 13.068C278.46 13.068 277.628 13.204 276.972 13.476C276.316 13.748 275.828 14.116 275.508 14.58C275.204 15.028 275.052 15.54 275.052 16.116C275.052 16.772 275.236 17.3 275.604 17.7C275.988 18.1 276.484 18.412 277.092 18.636C277.716 18.86 278.396 19.06 279.132 19.236C279.868 19.412 280.596 19.604 281.316 19.812C282.052 20.02 282.724 20.292 283.332 20.628C283.956 20.948 284.452 21.38 284.82 21.924C285.204 22.468 285.396 23.18 285.396 24.06C285.396 24.876 285.172 25.636 284.724 26.34C284.276 27.028 283.588 27.588 282.66 28.02C281.748 28.436 280.572 28.644 279.132 28.644ZM292.295 28.5V13.236H286.391V11.7H299.975V13.236H294.071V28.5H292.295ZM302.812 28.5V11.7H309.1C310.524 11.7 311.748 11.932 312.772 12.396C313.796 12.844 314.58 13.5 315.124 14.364C315.684 15.212 315.964 16.244 315.964 17.46C315.964 18.644 315.684 19.668 315.124 20.532C314.58 21.38 313.796 22.036 312.772 22.5C311.748 22.948 310.524 23.172 309.1 23.172H303.796L304.588 22.356V28.5H302.812ZM314.284 28.5L309.964 22.404H311.884L316.228 28.5H314.284ZM304.588 22.5L303.796 21.66H309.052C310.732 21.66 312.004 21.292 312.868 20.556C313.748 19.82 314.188 18.788 314.188 17.46C314.188 16.116 313.748 15.076 312.868 14.34C312.004 13.604 310.732 13.236 309.052 13.236H303.796L304.588 12.396V22.5ZM320.156 28.5V11.7H321.932V28.5H320.156ZM327.398 28.5V11.7H333.686C335.11 11.7 336.334 11.932 337.358 12.396C338.382 12.844 339.166 13.5 339.71 14.364C340.27 15.212 340.55 16.244 340.55 17.46C340.55 18.644 340.27 19.668 339.71 20.532C339.166 21.38 338.382 22.036 337.358 22.5C336.334 22.964 335.11 23.196 333.686 23.196H328.382L329.174 22.356V28.5H327.398ZM329.174 22.5L328.382 21.636H333.638C335.318 21.636 336.59 21.276 337.454 20.556C338.334 19.82 338.774 18.788 338.774 17.46C338.774 16.116 338.334 15.076 337.454 14.34C336.59 13.604 335.318 13.236 333.638 13.236H328.382L329.174 12.396V22.5ZM349.257 28.644C348.009 28.644 346.809 28.444 345.657 28.044C344.521 27.628 343.641 27.1 343.017 26.46L343.713 25.092C344.305 25.668 345.097 26.156 346.089 26.556C347.097 26.94 348.153 27.132 349.257 27.132C350.313 27.132 351.169 27.004 351.825 26.748C352.497 26.476 352.985 26.116 353.289 25.668C353.609 25.22 353.769 24.724 353.769 24.18C353.769 23.524 353.577 22.996 353.193 22.596C352.825 22.196 352.337 21.884 351.729 21.66C351.121 21.42 350.449 21.212 349.713 21.036C348.977 20.86 348.241 20.676 347.505 20.484C346.769 20.276 346.089 20.004 345.465 19.668C344.857 19.332 344.361 18.892 343.977 18.348C343.609 17.788 343.425 17.06 343.425 16.164C343.425 15.332 343.641 14.572 344.073 13.884C344.521 13.18 345.201 12.62 346.113 12.204C347.025 11.772 348.193 11.556 349.617 11.556C350.561 11.556 351.497 11.692 352.425 11.964C353.353 12.22 354.153 12.58 354.825 13.044L354.225 14.46C353.505 13.98 352.737 13.628 351.921 13.404C351.121 13.18 350.345 13.068 349.593 13.068C348.585 13.068 347.753 13.204 347.097 13.476C346.441 13.748 345.953 14.116 345.633 14.58C345.329 15.028 345.177 15.54 345.177 16.116C345.177 16.772 345.361 17.3 345.729 17.7C346.113 18.1 346.609 18.412 347.217 18.636C347.841 18.86 348.521 19.06 349.257 19.236C349.993 19.412 350.721 19.604 351.441 19.812C352.177 20.02 352.849 20.292 353.457 20.628C354.081 20.948 354.577 21.38 354.945 21.924C355.329 22.468 355.521 23.18 355.521 24.06C355.521 24.876 355.297 25.636 354.849 26.34C354.401 27.028 353.713 27.588 352.785 28.02C351.873 28.436 350.697 28.644 349.257 28.644Z" fill="#343434"/>
</svg>
