<svg width="160" height="31" viewBox="0 0 160 31" fill="none" xmlns="http://www.w3.org/2000/svg">
<g clip-path="url(#clip0_1_15)">
<path d="M2.84147 23.5V6.7H9.12947C10.5535 6.7 11.7775 6.932 12.8015 7.396C13.8255 7.844 14.6095 8.5 15.1535 9.364C15.7135 10.212 15.9935 11.244 15.9935 12.46C15.9935 13.644 15.7135 14.668 15.1535 15.532C14.6095 16.38 13.8255 17.036 12.8015 17.5C11.7775 17.948 10.5535 18.172 9.12947 18.172H3.82547L4.61747 17.356V23.5H2.84147ZM14.3135 23.5L9.99347 17.404H11.9135L16.2575 23.5H14.3135ZM4.61747 17.5L3.82547 16.66H9.08147C10.7615 16.66 12.0335 16.292 12.8975 15.556C13.7775 14.82 14.2175 13.788 14.2175 12.46C14.2175 11.116 13.7775 10.076 12.8975 9.34C12.0335 8.604 10.7615 8.236 9.08147 8.236H3.82547L4.61747 7.396V17.5ZM21.7692 14.212H30.6492V15.724H21.7692V14.212ZM21.9612 21.964H32.0652V23.5H20.1852V6.7H31.7052V8.236H21.9612V21.964ZM37.8239 14.836H46.7039V16.372H37.8239V14.836ZM38.0159 23.5H36.2399V6.7H47.7599V8.236H38.0159V23.5ZM51.4274 23.5V6.7H53.2034V21.964H62.6114V23.5H51.4274ZM67.1442 14.212H76.0242V15.724H67.1442V14.212ZM67.3362 21.964H77.4402V23.5H65.5602V6.7H77.0802V8.236H67.3362V21.964ZM88.864 23.644C87.6 23.644 86.432 23.436 85.36 23.02C84.288 22.588 83.36 21.988 82.576 21.22C81.792 20.452 81.176 19.548 80.728 18.508C80.296 17.468 80.08 16.332 80.08 15.1C80.08 13.868 80.296 12.732 80.728 11.692C81.176 10.652 81.792 9.748 82.576 8.98C83.376 8.212 84.312 7.62 85.384 7.204C86.456 6.772 87.624 6.556 88.888 6.556C90.104 6.556 91.248 6.764 92.32 7.18C93.392 7.58 94.296 8.188 95.032 9.004L93.904 10.132C93.216 9.428 92.456 8.924 91.624 8.62C90.792 8.3 89.896 8.14 88.936 8.14C87.928 8.14 86.992 8.316 86.128 8.668C85.264 9.004 84.512 9.492 83.872 10.132C83.232 10.756 82.728 11.492 82.36 12.34C82.008 13.172 81.832 14.092 81.832 15.1C81.832 16.108 82.008 17.036 82.36 17.884C82.728 18.716 83.232 19.452 83.872 20.092C84.512 20.716 85.264 21.204 86.128 21.556C86.992 21.892 87.928 22.06 88.936 22.06C89.896 22.06 90.792 21.9 91.624 21.58C92.456 21.26 93.216 20.748 93.904 20.044L95.032 21.172C94.296 21.988 93.392 22.604 92.32 23.02C91.248 23.436 90.096 23.644 88.864 23.644ZM101.871 23.5V8.236H95.9671V6.7H109.551V8.236H103.647V23.5H101.871ZM119.498 23.644C118.234 23.644 117.058 23.436 115.97 23.02C114.898 22.588 113.962 21.988 113.162 21.22C112.378 20.436 111.762 19.532 111.314 18.508C110.882 17.468 110.666 16.332 110.666 15.1C110.666 13.868 110.882 12.74 111.314 11.716C111.762 10.676 112.378 9.772 113.162 9.004C113.962 8.22 114.898 7.62 115.97 7.204C117.042 6.772 118.218 6.556 119.498 6.556C120.762 6.556 121.93 6.772 123.002 7.204C124.074 7.62 125.002 8.212 125.786 8.98C126.586 9.748 127.202 10.652 127.634 11.692C128.082 12.732 128.306 13.868 128.306 15.1C128.306 16.332 128.082 17.468 127.634 18.508C127.202 19.548 126.586 20.452 125.786 21.22C125.002 21.988 124.074 22.588 123.002 23.02C121.93 23.436 120.762 23.644 119.498 23.644ZM119.498 22.06C120.506 22.06 121.434 21.892 122.282 21.556C123.146 21.204 123.89 20.716 124.514 20.092C125.154 19.452 125.65 18.716 126.002 17.884C126.354 17.036 126.53 16.108 126.53 15.1C126.53 14.092 126.354 13.172 126.002 12.34C125.65 11.492 125.154 10.756 124.514 10.132C123.89 9.492 123.146 9.004 122.282 8.668C121.434 8.316 120.506 8.14 119.498 8.14C118.49 8.14 117.554 8.316 116.69 8.668C115.826 9.004 115.074 9.492 114.434 10.132C113.81 10.756 113.314 11.492 112.946 12.34C112.594 13.172 112.418 14.092 112.418 15.1C112.418 16.092 112.594 17.012 112.946 17.86C113.314 18.708 113.81 19.452 114.434 20.092C115.074 20.716 115.826 21.204 116.69 21.556C117.554 21.892 118.49 22.06 119.498 22.06ZM132.287 23.5V6.7H138.575C139.999 6.7 141.223 6.932 142.247 7.396C143.271 7.844 144.055 8.5 144.599 9.364C145.159 10.212 145.439 11.244 145.439 12.46C145.439 13.644 145.159 14.668 144.599 15.532C144.055 16.38 143.271 17.036 142.247 17.5C141.223 17.948 139.999 18.172 138.575 18.172H133.271L134.063 17.356V23.5H132.287ZM143.759 23.5L139.439 17.404H141.359L145.703 23.5H143.759ZM134.063 17.5L133.271 16.66H138.527C140.207 16.66 141.479 16.292 142.343 15.556C143.223 14.82 143.663 13.788 143.663 12.46C143.663 11.116 143.223 10.076 142.343 9.34C141.479 8.604 140.207 8.236 138.527 8.236H133.271L134.063 7.396V17.5Z" fill="#343434"/>
</g>
<defs>
<clipPath id="clip0_1_15">
<rect width="160" height="31" fill="white"/>
</clipPath>
</defs>
</svg>
